<?xml version="1.0" standalone="no"?>
<!DOCTYPE svg PUBLIC "-//W3C//DTD SVG 20010904//EN"
 "http://www.w3.org/TR/2001/REC-SVG-20010904/DTD/svg10.dtd">
<svg version="1.0" xmlns="http://www.w3.org/2000/svg"
 width="1038.000000pt" height="1600.000000pt" viewBox="0 0 1038.000000 1600.000000"
 preserveAspectRatio="xMidYMid meet">
<metadata>
Created by potrace 1.16, written by Peter Selinger 2001-2019
</metadata>
<g transform="translate(0.000000,1600.000000) scale(0.100000,-0.100000)"
fill="#000000" stroke="none">
<path d="M5999 12622 c-72 -55 -85 -69 -108 -115 -15 -29 -21 -32 -68 -35
l-53 -3 0 -55 c0 -50 -2 -55 -27 -65 -99 -39 -145 -70 -156 -104 -8 -24 -6
-31 12 -46 44 -36 33 -40 -134 -43 -28 -1 -30 -3 -30 -42 -1 -38 -17 -74 -34
-74 -12 0 -58 113 -70 172 -9 43 -21 66 -49 94 -49 49 -91 74 -125 74 -21 0
-31 7 -44 35 -9 19 -20 35 -24 35 -4 0 -29 15 -55 33 -27 19 -67 40 -89 47
-22 8 -44 18 -50 22 -17 15 -47 8 -77 -17 -36 -30 -62 -26 -95 13 l-22 26 -55
-18 c-42 -14 -72 -18 -133 -14 -146 10 -273 -32 -330 -110 -15 -20 -41 -51
-58 -67 -16 -17 -37 -44 -46 -61 -19 -35 -117 -91 -143 -81 -12 5 -16 20 -16
61 0 53 -2 57 -62 124 -35 39 -68 71 -73 71 -6 1 -19 -14 -29 -31 -25 -43 -67
-88 -82 -88 -19 0 -28 20 -26 58 l3 34 -52 -7 c-29 -4 -103 -7 -166 -7 -91 0
-120 -4 -150 -19 -21 -11 -45 -19 -56 -19 -21 0 -94 -35 -119 -58 -12 -10 -18
-30 -18 -60 0 -38 -5 -49 -36 -77 -20 -19 -50 -39 -68 -45 -17 -7 -44 -18 -59
-27 -19 -10 -40 -12 -66 -8 -24 4 -42 2 -46 -4 -10 -18 -36 -13 -71 14 l-34
26 6 -44 c6 -40 4 -45 -17 -50 -28 -7 -52 12 -70 54 -19 47 -46 34 -111 -51
-56 -74 -75 -110 -57 -110 5 0 9 -4 9 -10 0 -5 -7 -10 -15 -10 -8 0 -15 5 -15
10 0 13 -48 -11 -86 -43 -16 -14 -53 -30 -83 -36 -69 -15 -123 -45 -144 -81
-28 -47 -22 -71 30 -116 30 -27 44 -46 41 -56 -9 -21 -112 -78 -144 -78 -46 0
-58 -24 -59 -113 0 -61 -4 -82 -15 -88 -23 -12 -53 -22 -69 -23 -27 -2 -53
-110 -32 -132 16 -16 51 -132 45 -148 -6 -14 -27 -25 -99 -47 -77 -24 -100
-42 -103 -84 -3 -38 -3 -38 29 -31 72 14 82 -65 12 -102 l-22 -12 20 -34 c13
-22 18 -43 14 -59 -9 -34 22 -100 73 -160 59 -68 61 -81 31 -183 -11 -36 -10
-52 5 -108 10 -37 28 -80 40 -97 19 -28 95 -80 139 -95 9 -4 17 -11 17 -16 0
-5 4 -6 10 -3 5 3 10 0 10 -8 0 -23 33 -57 60 -62 39 -7 120 -47 114 -57 -3
-4 2 -8 11 -8 8 0 20 -11 25 -25 11 -29 16 -30 50 -10 29 17 44 19 36 6 -4 -5
3 -7 13 -4 26 7 130 -16 157 -34 19 -12 150 -30 249 -34 25 -1 198 -15 297
-24 15 -1 35 -8 44 -16 9 -8 19 -13 21 -11 1 1 20 -1 41 -4 36 -6 40 -10 66
-69 56 -130 101 -133 219 -14 65 66 121 109 142 109 4 0 2 -7 -5 -15 -7 -8
-17 -15 -22 -15 -11 0 -38 -25 -38 -35 0 -4 -7 -13 -15 -22 -25 -24 -13 -37
43 -47 49 -9 52 -11 52 -39 0 -17 3 -28 6 -24 3 3 18 -5 32 -19 31 -28 79 -32
89 -8 5 13 15 15 53 10 52 -7 91 1 69 15 -7 4 22 5 64 3 101 -7 231 20 302 62
11 6 47 26 79 43 55 30 58 31 44 9 -8 -13 -43 -37 -79 -55 -101 -50 -107 -58
-45 -58 28 0 109 -3 180 -8 118 -7 128 -6 122 9 -4 11 2 26 15 41 18 19 32 23
73 22 l51 -2 -45 -6 c-54 -8 -66 -14 -73 -41 -8 -29 12 -34 69 -18 32 9 89 13
166 12 85 -2 130 1 160 12 53 19 356 21 389 3 16 -8 54 -8 153 1 131 13 157
11 271 -19 55 -14 121 -14 148 2 69 38 91 75 123 206 24 97 41 135 29 66 -16
-100 -27 -140 -50 -189 -14 -29 -25 -56 -25 -59 0 -4 13 -4 30 -1 19 4 38 1
55 -10 35 -23 45 -20 39 12 -9 43 23 66 83 59 26 -3 52 -12 58 -21 7 -9 17
-16 23 -16 5 0 12 -7 15 -15 9 -22 85 -66 116 -67 65 -1 80 4 125 43 25 22 46
47 46 54 0 7 4 15 8 17 5 2 31 48 57 103 51 107 75 134 116 135 28 0 53 -21
107 -89 47 -58 83 -74 172 -75 85 -1 164 26 235 79 48 36 165 153 165 166 0 4
10 14 22 20 15 8 8 -5 -22 -42 -25 -29 -52 -62 -60 -73 -8 -10 -28 -34 -43
-52 -17 -19 -24 -35 -17 -39 5 -3 10 1 10 10 0 10 7 15 17 13 24 -5 28 -28 5
-28 -11 0 -23 -6 -25 -12 -4 -10 -6 -10 -6 0 -1 6 -8 12 -16 12 -15 0 -95 -37
-95 -44 0 -2 39 -2 88 0 48 2 112 4 142 5 l55 2 -70 8 c-80 10 -103 17 -62 18
19 1 26 5 21 13 -5 8 -2 9 10 5 10 -4 19 -1 22 8 7 17 34 21 34 5 0 -5 8 -10
18 -10 14 0 15 -2 2 -10 -12 -8 -11 -10 7 -10 15 0 28 10 38 29 8 17 30 42 49
56 33 25 36 25 64 11 15 -8 34 -22 42 -31 12 -14 15 -14 37 6 12 13 23 31 23
41 0 20 35 39 85 45 37 5 45 5 182 -3 61 -4 127 -4 146 0 l35 7 -24 24 c-47
48 -24 154 45 201 32 22 46 24 139 24 107 0 160 14 207 57 48 43 68 57 60 44
-10 -18 -71 -71 -99 -88 -66 -38 -111 -46 -196 -32 -61 10 -93 -3 -134 -51
-32 -38 -36 -106 -8 -138 19 -23 68 -37 77 -23 3 6 27 13 53 16 73 10 80 14
75 34 -7 28 24 68 61 81 21 6 54 7 94 2 34 -5 65 -5 69 -2 4 4 31 15 60 24 28
10 56 23 62 30 13 16 3 76 -13 76 -6 1 0 10 14 21 14 12 26 25 26 30 1 5 2 16
3 25 0 8 5 13 10 10 4 -3 8 7 7 23 -1 26 -3 28 -30 20 -16 -5 -34 -5 -40 -2
-6 4 -24 6 -39 4 -26 -2 -27 -1 -21 26 9 38 13 43 30 43 9 0 12 5 8 12 -5 8 2
9 26 5 18 -4 43 -7 57 -7 15 0 26 -8 31 -20 7 -19 10 -18 41 14 32 33 33 34
13 45 -12 6 -30 11 -41 11 -13 0 -21 6 -21 16 0 10 5 14 15 10 9 -3 18 1 21 9
9 22 24 18 24 -5 0 -24 25 -37 43 -22 6 5 24 12 40 16 23 5 27 11 25 39 -3 30
-1 32 35 35 26 2 42 10 53 28 9 13 23 24 30 24 8 0 14 4 14 8 0 18 -26 32 -58
32 -26 0 -42 -9 -73 -40 -21 -21 -39 -35 -39 -29 0 15 88 99 104 99 7 0 16 10
20 23 3 12 17 27 30 33 22 10 25 9 28 -10 3 -16 7 -12 17 19 10 28 11 40 2 43
-6 2 -11 8 -11 14 0 6 6 8 14 5 10 -4 15 10 20 59 7 66 2 89 -15 79 -5 -4 -9
1 -9 9 0 9 4 16 8 16 5 0 14 19 21 41 15 49 4 67 -45 74 -61 9 -109 24 -112
35 -3 7 -31 -15 -63 -49 -47 -48 -70 -63 -116 -78 -32 -9 -62 -22 -66 -28 -5
-6 -7 -2 -5 10 2 11 12 21 23 23 46 9 111 47 152 89 43 43 44 45 42 106 -2 60
-37 185 -60 213 -9 11 -8 14 5 14 11 0 16 9 16 30 0 17 -4 30 -10 30 -5 0 -10
-4 -10 -10 0 -5 -6 -10 -14 -10 -8 0 -17 -15 -20 -34 -4 -19 -13 -37 -22 -40
-8 -3 -22 -23 -31 -43 -9 -21 -18 -32 -20 -25 -7 18 18 74 41 93 13 11 18 26
17 50 -6 73 -3 83 32 115 l35 32 -47 45 c-56 54 -124 100 -195 133 -49 22 -93
24 -81 4 3 -5 -15 -22 -39 -39 -24 -17 -47 -36 -49 -43 -4 -10 -6 -10 -6 -1
-1 7 15 30 34 52 19 21 35 45 35 54 0 18 -74 87 -94 87 -8 0 -22 -10 -30 -22
-15 -21 -18 -21 -53 -8 -23 8 -72 12 -124 11 -94 -2 -118 6 -170 57 -32 31
-31 45 0 19 50 -42 221 -71 256 -43 15 12 16 16 5 16 -10 1 -9 4 4 9 24 9 -17
21 -183 51 -108 19 -114 19 -128 3 -13 -16 -14 -16 -9 -1 6 19 -16 30 -47 23
-18 -4 -25 2 -40 35 -20 43 -90 104 -175 152 -45 26 -54 36 -64 74 -7 24 -16
44 -20 44 -4 0 -8 7 -8 15 0 8 -4 15 -10 15 -5 0 -10 9 -10 20 0 11 -4 20 -10
20 -5 0 -10 9 -10 20 0 11 -4 20 -10 20 -5 0 -7 6 -4 14 10 27 -15 26 -48 -2
-79 -68 -111 -78 -129 -38 -9 19 -21 25 -62 29 -34 3 -59 0 -72 -9 -44 -29
-96 -27 -177 5 -84 34 -155 47 -176 33 -8 -5 -17 -25 -21 -43 -6 -29 -12 -35
-41 -40 -19 -4 -54 -11 -77 -17 -38 -9 -46 -7 -75 15 -46 35 -144 83 -167 83
-11 0 -45 22 -76 49 -31 27 -71 59 -89 72 -19 13 -42 36 -51 51 -16 28 -45 38
-45 17 0 -6 -9 -24 -20 -40 -24 -33 -46 -29 -62 10 -10 25 -11 25 -26 -24 -26
-88 -34 -104 -55 -111 -27 -8 -52 24 -73 96 -25 84 -32 100 -47 100 -8 0 -43
-22 -78 -48z m2101 -1050 c17 -13 29 -30 26 -37 -3 -9 2 -11 17 -8 16 3 18 2
8 -5 -10 -7 -10 -14 -2 -30 13 -25 14 -35 2 -28 -18 11 -69 -6 -74 -25 -6 -21
-27 -26 -27 -6 -1 6 -7 1 -14 -12 -13 -23 -14 -23 -19 -5 -15 53 -18 104 -6
104 7 0 21 7 31 16 14 14 20 14 33 4 8 -7 15 -8 15 -2 0 5 -7 16 -16 23 -20
16 -34 50 -26 63 3 5 9 1 13 -10 3 -10 21 -30 39 -42z m-606 -137 c-4 -9 0
-15 10 -15 9 0 17 -3 17 -7 6 -34 5 -53 -3 -53 -5 0 -19 -11 -32 -25 -13 -14
-28 -25 -35 -25 -6 0 -11 -4 -11 -10 0 -5 -10 -10 -22 -10 -17 0 -19 -3 -9 -9
9 -6 5 -10 -16 -13 -29 -4 -30 -2 -32 36 -2 60 23 109 67 128 48 22 73 23 66
3z m-2485 -18 c19 -9 39 -17 44 -17 22 0 127 -56 127 -67 0 -18 -14 -16 -62 7
-23 11 -44 18 -46 15 -3 -2 -14 0 -25 6 -14 8 -18 8 -13 0 5 -7 -1 -11 -14
-11 -12 0 -19 4 -16 9 8 12 -47 24 -72 17 -20 -7 -30 -70 -12 -81 18 -11 11
-84 -16 -163 -14 -42 -28 -79 -32 -82 -4 -3 -14 -18 -22 -33 -8 -16 -40 -52
-70 -80 -81 -75 -175 -118 -254 -116 -39 1 -40 1 -11 9 233 59 385 220 385
410 0 49 -4 60 -29 84 -19 18 -27 34 -24 47 3 10 0 19 -6 19 -6 0 -11 12 -11
26 0 26 0 26 73 22 41 -2 87 -11 106 -21z m-505 -227 c-4 -18 -1 -36 6 -45 7
-8 10 -24 7 -36 -6 -21 9 -57 28 -71 6 -4 -11 -8 -38 -8 -41 0 -52 -5 -82 -35
l-34 -36 -72 36 c-39 19 -85 35 -103 36 -23 0 -26 2 -13 8 14 5 9 9 -23 17
-22 6 -43 7 -46 3 -3 -5 -22 -9 -42 -9 -26 0 -33 3 -22 9 8 6 17 8 21 5 11 -6
180 55 236 87 29 16 62 29 73 29 11 0 20 4 20 9 0 10 45 29 72 30 14 1 16 -5
12 -29z m-316 -404 l26 -13 -23 -12 c-12 -7 -32 -9 -44 -5 -30 10 -147 11
-147 2 0 -5 -7 -8 -15 -8 -8 0 -15 -5 -15 -10 0 -6 6 -10 13 -9 25 3 38 -1 32
-11 -3 -5 -26 -10 -50 -10 -24 0 -47 -4 -50 -10 -3 -5 -11 -10 -17 -10 -7 0
-6 6 2 15 11 13 8 15 -20 15 -19 0 -30 3 -27 7 8 8 -11 33 -25 33 -6 0 -5 -7
2 -15 7 -9 10 -19 6 -23 -4 -4 -13 0 -19 9 -13 18 -32 18 -96 0 -23 -7 -45
-10 -48 -7 -5 5 35 28 57 33 8 1 60 13 115 27 84 20 118 23 208 20 64 -3 119
-10 135 -18z m3682 -75 c-6 -12 -8 -27 -4 -33 4 -6 -1 -17 -11 -25 -13 -8 -14
-13 -5 -13 22 0 0 -15 -23 -16 -12 -1 -26 -2 -32 -4 -5 -1 -25 3 -42 11 -48
20 -42 52 22 121 l39 43 34 -32 c29 -27 32 -34 22 -52z m-2904 -10 c-11 -18
-97 -51 -131 -51 -19 0 -43 -4 -53 -9 -9 -5 -51 -15 -92 -21 -70 -10 -125 -25
-256 -65 -29 -9 -74 -20 -100 -24 -81 -15 -168 -32 -186 -37 -10 -3 -18 -1
-18 4 0 9 30 18 90 26 23 4 212 53 350 91 55 15 153 38 240 55 35 7 142 33
158 39 2 1 1 -3 -2 -8z m-694 -251 c21 -6 42 -20 48 -30 9 -16 18 -18 61 -14
33 3 48 1 44 -6 -4 -6 11 -9 42 -7 l48 2 3 -36 c4 -48 -14 -61 -88 -64 -36 -2
-71 -10 -86 -20 -46 -30 -336 -21 -348 11 -3 8 -17 14 -31 14 -14 0 -25 5 -25
10 0 6 5 10 10 10 6 0 10 5 10 11 0 6 -9 9 -19 6 -22 -5 -46 7 -46 25 0 21
-159 16 -220 -7 -28 -10 -54 -22 -59 -27 -12 -10 -26 -10 -26 0 0 14 116 60
200 78 45 10 44 9 185 23 66 7 140 16 165 20 65 12 90 12 132 1z m757 -83
c-63 -57 -72 -63 -116 -88 -21 -12 -40 -24 -43 -28 -8 -10 -41 -28 -155 -84
-182 -90 -313 -138 -474 -173 -35 -7 -72 -16 -82 -19 -11 -4 -19 -2 -19 4 0 6
6 11 14 11 7 0 38 7 67 16 148 45 217 67 246 80 17 8 34 14 38 14 4 0 21 6 38
14 18 8 55 24 82 36 170 75 360 185 416 241 10 10 22 19 27 19 4 0 -14 -19
-39 -43z m396 -322 c-16 -14 -39 -25 -49 -25 -11 0 -16 -3 -13 -6 12 -12 -193
-94 -235 -94 -14 0 -149 -78 -163 -94 -22 -27 -162 -84 -220 -90 -33 -3 -89
-15 -125 -26 -94 -29 -170 -36 -206 -17 -16 8 -55 20 -86 27 -32 7 -58 16 -58
20 0 3 27 5 60 4 50 -2 60 0 61 14 0 14 2 13 9 -3 5 -11 9 -14 9 -7 1 6 10 12
21 12 11 0 20 7 20 15 0 31 34 33 73 5 23 -17 32 -30 25 -33 -23 -8 -4 -15 24
-10 17 3 35 18 48 40 16 27 23 32 37 25 10 -6 26 -6 39 -2 15 6 24 5 27 -3 8
-26 30 41 28 85 -3 65 10 86 54 86 20 0 41 5 49 11 7 6 17 7 21 3 5 -4 5 1 2
11 -6 17 -6 17 18 0 13 -10 23 -25 22 -33 -3 -18 33 -26 43 -10 5 9 13 9 26 2
12 -7 27 -7 43 0 15 5 51 7 83 3 33 -3 59 -2 62 4 4 5 28 13 54 17 56 8 132
39 132 54 0 5 8 10 18 10 10 0 27 7 38 15 33 25 41 16 9 -10z"/>
<path d="M8985 11323 c1 -10 7 -37 14 -61 6 -23 9 -47 6 -52 -8 -13 14 -52 25
-45 4 3 10 0 12 -6 2 -7 14 -13 27 -14 13 -1 32 -12 43 -26 l20 -24 -6 62 c-9
102 -49 162 -117 178 -21 5 -25 3 -24 -12z"/>
<path d="M6778 9853 c-22 -5 -40 -35 -71 -113 -39 -102 -43 -134 -10 -92 10
13 13 13 11 2 -2 -11 6 -15 32 -13 19 0 81 2 138 3 56 0 128 5 159 10 62 10
94 29 47 28 -16 -1 -54 6 -84 15 -56 16 -85 40 -129 105 -25 36 -67 61 -93 55z"/>
<path d="M8985 5180 c-33 -35 -55 -38 -62 -10 -6 24 -21 26 -29 5 -4 -8 -12
-15 -20 -15 -8 0 -14 -7 -14 -15 0 -8 9 -15 20 -15 11 0 20 -4 20 -9 0 -5 3
-16 6 -25 3 -8 -3 -22 -15 -33 -12 -9 -21 -25 -21 -35 0 -10 -4 -18 -10 -18
-11 0 -3 -54 13 -84 8 -16 4 -24 -21 -45 l-31 -26 10 -78 c8 -57 8 -81 0 -91
-9 -11 -9 -16 -1 -21 6 -4 9 -13 6 -20 -3 -8 0 -27 7 -44 10 -26 9 -34 -6 -48
-26 -26 -35 -5 -31 70 4 57 2 64 -26 94 -27 29 -33 63 -10 63 4 0 8 24 8 53 0
28 2 63 4 76 2 13 -2 26 -9 28 -19 7 -53 -34 -53 -63 0 -17 -6 -28 -20 -31
-25 -7 -26 -30 -3 -56 17 -18 17 -19 -2 -33 -10 -8 -25 -14 -32 -14 -9 0 -11
-8 -7 -25 4 -18 2 -25 -8 -25 -8 0 -23 -19 -33 -42 -11 -24 -24 -49 -29 -57
-6 -8 -11 -27 -11 -43 0 -28 9 -36 20 -18 11 18 38 10 80 -25 23 -19 45 -32
48 -29 3 3 1 20 -4 37 -5 17 -5 33 -1 36 5 4 11 14 15 24 13 34 26 16 23 -31
-5 -67 3 -102 20 -95 18 7 17 -7 0 -30 -11 -14 -15 -15 -19 -5 -4 10 -8 10
-16 -1 -12 -18 14 -40 38 -34 9 2 23 -1 31 -7 24 -15 -1 -46 -36 -43 -28 2
-94 -31 -94 -48 0 -5 -7 -9 -15 -9 -8 0 -15 -4 -15 -10 0 -5 9 -10 20 -10 21
0 28 -24 10 -35 -19 -11 -10 -25 15 -25 14 0 28 7 31 15 9 23 23 8 17 -18 -11
-49 -12 -51 -31 -33 -24 21 -39 20 -47 -3 -6 -21 3 -51 16 -51 5 0 9 -11 9
-25 0 -35 32 -97 46 -91 7 3 15 0 17 -7 6 -19 -4 -47 -18 -47 -7 0 -15 -5 -17
-11 -2 -6 -15 5 -28 24 -14 20 -35 39 -48 42 -12 3 -32 15 -43 26 -27 27 -63
22 -67 -11 -8 -69 -51 -96 -48 -31 1 33 7 43 36 63 27 18 36 33 41 63 4 22 3
45 -1 50 -5 6 -10 26 -12 45 -2 29 -7 36 -29 38 -23 3 -28 -3 -47 -56 -23 -63
-28 -86 -12 -62 7 11 10 11 10 2 0 -9 5 -10 19 -3 23 13 47 -10 37 -34 -7 -19
-45 -20 -52 0 -8 21 -26 19 -52 -5 -12 -11 -28 -20 -36 -20 -23 0 -46 -53 -46
-104 0 -42 2 -46 48 -74 36 -22 56 -28 78 -24 26 5 28 3 16 -11 -25 -30 -76
-40 -116 -23 -20 8 -39 23 -43 33 -3 10 -11 25 -18 33 -17 21 -27 52 -15 45 6
-3 10 4 10 16 0 12 7 27 16 34 21 15 10 55 -14 55 -23 0 -72 -47 -72 -69 0 -9
-11 -28 -25 -41 -15 -14 -25 -18 -25 -11 0 9 -8 11 -25 7 -19 -5 -23 -3 -19 8
7 17 34 30 34 16 0 -6 5 -10 10 -10 18 0 11 18 -9 25 -11 3 -21 16 -23 28 -5
39 -43 28 -77 -23 -16 -24 -26 -47 -21 -50 12 -8 -1 -62 -14 -57 -7 2 -10 25
-8 60 3 38 0 57 -7 57 -6 0 -17 12 -24 27 l-12 27 -7 -40 c-4 -21 -7 -62 -7
-90 -1 -41 3 -53 19 -60 18 -9 17 -12 -17 -56 -23 -30 -41 -44 -47 -39 -6 5
-29 11 -51 13 -39 3 -40 2 -37 -26 5 -47 -15 -83 -51 -91 l-32 -7 38 -10 c35
-10 48 -30 27 -43 -16 -10 -12 -42 6 -49 21 -8 33 2 15 13 -23 15 -3 51 28 51
30 0 74 40 85 77 4 12 20 36 36 53 16 17 38 46 50 65 11 19 31 35 43 37 25 3
36 43 18 61 -15 15 -14 27 4 27 8 0 17 -15 21 -37 4 -21 13 -44 21 -51 23 -23
15 -31 -37 -38 -28 -4 -49 -11 -48 -16 2 -5 7 -9 12 -8 5 1 12 -3 15 -9 4 -6
16 -12 26 -14 11 -1 25 -6 31 -10 7 -4 19 8 30 28 21 40 30 43 39 15 4 -14 15
-20 35 -20 42 0 50 -33 15 -67 -17 -18 -23 -32 -18 -42 4 -9 6 -41 5 -72 -2
-44 1 -58 13 -63 9 -3 13 -10 10 -16 -11 -17 -31 -11 -43 13 -10 20 -11 20
-10 2 3 -49 -1 -56 -22 -45 -16 8 -28 5 -60 -15 -34 -22 -40 -30 -40 -61 l0
-36 42 4 c51 4 57 -10 23 -51 -31 -36 -45 -39 -45 -12 0 11 -5 23 -10 26 -15
9 -50 -4 -50 -19 0 -13 -41 -56 -53 -56 -4 0 -7 11 -7 25 0 14 -5 25 -11 25
-6 0 -8 -7 -5 -16 9 -23 -3 -37 -20 -23 -19 16 -30 4 -15 -15 7 -8 11 -25 9
-38 -2 -13 3 -28 11 -34 11 -8 11 -15 2 -33 -10 -18 -18 -21 -45 -15 -31 5
-34 3 -39 -23 -9 -43 13 -59 45 -33 31 24 42 25 62 4 15 -14 16 -13 16 6 0 16
4 20 16 16 9 -3 26 5 42 19 37 34 74 31 40 -3 -18 -18 3 -14 23 4 20 18 15 44
-10 44 -22 0 -56 39 -39 45 33 10 78 10 81 1 2 -6 11 -4 21 7 10 9 26 17 37
17 10 0 19 5 19 10 0 6 15 8 38 5 33 -5 43 -1 95 42 50 41 58 51 53 74 -6 31
41 89 73 89 11 0 23 5 26 10 4 6 19 9 33 8 35 -2 52 8 52 31 0 31 -24 43 -38
20 -15 -24 -27 -24 -63 2 -22 15 -29 28 -29 54 0 38 -25 53 -60 35 -14 -8 -26
-8 -40 0 -28 15 -43 4 -29 -21 8 -15 14 -18 24 -9 9 8 14 7 18 -4 3 -8 -1 -17
-9 -20 -9 -3 -12 -11 -9 -17 13 -20 11 -68 -3 -74 -9 -3 -11 -12 -7 -26 6 -18
4 -21 -10 -16 -9 4 -19 7 -21 7 -2 0 1 8 8 19 9 15 7 25 -10 53 -27 43 -27 70
-2 127 11 23 17 47 14 52 -3 5 2 9 11 9 8 0 18 -6 20 -12 3 -8 23 -13 48 -13
42 1 93 24 129 58 12 12 26 16 36 11 14 -6 13 -8 -8 -17 -25 -10 -75 -75 -65
-85 2 -3 13 2 22 11 10 8 36 17 58 19 31 2 43 9 55 30 12 23 13 31 2 48 -18
29 -15 39 13 50 18 7 25 17 25 35 0 16 6 25 15 25 8 0 15 -3 15 -8 0 -11 49
-62 60 -62 5 0 9 10 7 23 -1 16 3 22 18 22 13 0 23 10 30 30 6 17 21 46 33 65
12 19 21 44 20 55 -4 29 -43 31 -62 3 -11 -15 -19 -19 -26 -12 -13 13 5 68 20
59 5 -3 18 0 29 7 15 9 23 9 36 -2 14 -11 17 -10 22 8 3 12 9 22 13 22 13 0
22 68 11 88 -7 14 -5 26 8 46 15 23 17 33 8 57 -9 21 -8 37 0 60 14 37 10 49
-17 49 -29 0 -31 12 -9 74 17 47 18 60 8 72 -11 14 -15 13 -30 -7 -15 -21 -15
-25 -2 -46 10 -15 11 -23 4 -23 -6 0 -14 -1 -18 -2 -13 -6 -22 55 -11 76 21
38 26 179 8 201 -7 8 -10 29 -7 47 2 18 1 41 -4 50 -7 13 -1 23 27 44 33 25
35 31 30 65 -4 28 -1 43 14 62 21 27 27 63 10 69 -22 7 11 77 52 111 28 24 39
39 35 51 -9 23 -19 20 -52 -14z"/>
<path d="M9420 5161 c0 -6 5 -13 11 -16 6 -4 8 -13 6 -19 -7 -19 50 -98 86
-120 18 -11 36 -26 40 -33 10 -16 37 -17 37 -2 0 6 -14 40 -31 76 -21 44 -43
73 -71 93 -40 29 -78 39 -78 21z"/>
<path d="M1840 5024 c-14 -7 -33 -14 -42 -14 -22 0 -35 -26 -34 -65 1 -26 5
-30 32 -33 42 -4 60 -27 68 -85 4 -37 2 -49 -9 -52 -8 -3 -22 -7 -30 -10 -11
-3 -12 -10 -6 -27 9 -23 25 -26 86 -14 12 2 28 -7 42 -23 28 -34 45 -19 36 32
-4 27 -13 41 -32 50 -36 17 -39 51 -7 73 32 20 32 26 4 39 -17 7 -27 25 -36
65 -13 53 -28 81 -41 79 -3 -1 -17 -7 -31 -15z"/>
<path d="M2148 4905 c-14 -30 -33 -32 -48 -5 -13 25 -32 25 -54 1 -16 -18 -16
-22 -1 -76 9 -31 24 -59 32 -62 25 -10 48 11 53 48 4 30 9 34 40 37 42 4 51
16 38 53 -13 36 -44 38 -60 4z"/>
<path d="M9712 4863 c2 -10 13 -19 26 -21 12 -2 22 -11 22 -20 1 -9 14 -26 30
-37 44 -31 129 -99 129 -105 1 -3 34 -40 74 -83 69 -72 77 -78 127 -86 49 -8
55 -6 77 15 13 13 23 30 23 39 0 8 5 15 10 15 17 0 11 25 -10 38 -11 7 -20 19
-20 28 0 16 -116 134 -132 134 -4 0 -8 6 -8 14 0 7 -14 19 -31 26 -26 11 -36
10 -65 -3 -42 -21 -44 -21 -44 -3 0 9 -7 12 -20 9 -10 -3 -35 4 -53 16 -19 12
-48 21 -65 21 -17 0 -34 5 -37 10 -11 17 -37 11 -33 -7z"/>
<path d="M2451 4682 c-5 -9 -12 -34 -16 -54 -11 -58 -54 -58 -76 0 -14 37 -44
25 -44 -19 0 -20 -6 -43 -13 -51 -24 -30 -18 -86 13 -118 34 -36 41 -37 65 -8
15 19 21 21 43 11 45 -21 57 7 61 141 3 93 1 116 -10 116 -7 0 -18 -8 -23 -18z"/>
<path d="M2173 4598 c-12 -6 -24 -22 -28 -37 -4 -14 -13 -33 -21 -42 -11 -13
-12 -22 -4 -45 9 -23 8 -32 -7 -53 -25 -32 -37 -29 -43 11 -7 45 -34 48 -55 7
l-17 -32 66 -63 c36 -34 66 -67 66 -73 0 -6 7 -11 15 -11 18 0 19 23 3 50 -16
25 -1 54 31 58 26 4 26 10 -1 39 -20 22 -21 24 -5 55 12 25 33 151 24 147 -1
0 -12 -5 -24 -11z"/>
<path d="M1813 4579 c-12 -4 -29 -19 -37 -32 -20 -29 -31 -129 -22 -190 6 -37
12 -47 36 -57 41 -17 50 -31 53 -80 2 -37 7 -46 34 -61 37 -21 42 -17 42 37
-1 21 7 56 15 77 18 41 15 52 -21 80 -40 32 -57 77 -58 149 0 74 -9 90 -42 77z"/>
<path d="M2631 4544 c-17 -14 -31 -35 -31 -46 0 -21 8 -21 66 -3 17 5 24 0 37
-28 21 -43 21 -76 2 -101 -8 -11 -15 -26 -15 -33 0 -7 -9 -32 -19 -56 -11 -23
-23 -61 -26 -85 -6 -37 -5 -41 11 -35 12 4 15 3 9 -6 -5 -9 -2 -12 11 -9 11 2
19 8 19 13 1 36 45 48 45 13 0 -17 3 -19 9 -10 5 9 22 13 46 10 24 -2 40 2 43
10 2 8 -7 12 -27 12 -61 0 -47 46 26 89 17 10 17 12 0 22 -12 7 -17 21 -15 46
2 26 -3 40 -19 53 -12 9 -25 29 -29 44 -3 15 -21 43 -39 62 -18 19 -36 41 -39
49 -8 22 -31 18 -65 -11z"/>
<path d="M7510 4285 c0 -15 -13 -36 -35 -56 -38 -35 -44 -53 -20 -62 14 -6 94
33 129 62 10 9 36 16 60 16 30 0 41 4 41 15 0 8 7 18 15 22 11 5 9 7 -7 7 -13
1 -23 -5 -23 -11 0 -7 -5 -5 -11 5 -12 21 -55 22 -67 2 -7 -14 -11 -13 -27 5
-26 29 -55 26 -55 -5z"/>
<path d="M2399 4184 c-7 -8 -20 -13 -29 -11 -24 6 -43 -12 -70 -66 -15 -29
-43 -62 -72 -85 -37 -27 -48 -43 -48 -63 0 -70 -24 -76 -73 -18 -40 49 -57 45
-57 -13 0 -29 7 -47 23 -63 102 -103 103 -105 84 -120 -28 -21 -49 -8 -90 56
-20 32 -44 59 -52 59 -8 0 -27 18 -41 40 -37 56 -52 52 -46 -10 3 -33 1 -51
-7 -51 -31 -5 -36 -2 -41 21 -4 18 -14 26 -33 28 -35 4 -35 -15 -1 -54 14 -16
30 -39 35 -52 7 -19 12 -21 28 -12 31 16 51 12 89 -16 33 -26 62 -76 62 -108
0 -9 -11 -18 -25 -22 -53 -13 -41 -120 16 -141 29 -11 31 -15 25 -47 -4 -22
-2 -43 6 -56 23 -36 31 -21 24 48 -3 37 -2 73 3 82 7 9 6 19 -1 27 -6 8 -14
31 -18 53 -7 37 -6 40 16 40 12 0 37 15 55 33 28 27 33 40 35 85 2 53 16 82
40 82 20 0 19 74 -1 90 -21 17 -19 40 4 40 11 0 28 15 40 35 11 20 29 38 38
41 10 3 36 14 58 25 50 24 62 24 74 1 15 -29 -48 -87 -83 -78 -22 5 -26 3 -26
-14 0 -11 7 -32 16 -45 15 -23 15 -27 1 -48 -14 -21 -13 -24 1 -33 21 -14 12
-26 -42 -52 -49 -25 -54 -52 -8 -49 23 2 27 -2 27 -23 0 -20 -6 -26 -27 -28
-18 -2 -28 -9 -28 -20 0 -27 13 -39 47 -46 32 -7 73 -41 104 -87 20 -28 36
-20 20 9 -22 41 14 71 55 45 12 -7 28 -11 36 -8 17 7 38 47 38 73 0 11 8 18
20 19 23 2 25 -14 11 -87 -7 -36 -6 -48 8 -66 15 -19 16 -30 6 -91 -9 -56 -15
-69 -31 -71 -11 -2 -31 8 -45 22 -31 31 -99 33 -99 4 0 -10 -11 -44 -24 -76
-32 -81 -20 -155 21 -121 13 11 17 10 29 -6 8 -10 14 -24 14 -31 0 -15 -27
-44 -41 -44 -5 0 -9 -9 -9 -19 0 -17 5 -19 36 -14 40 7 59 -10 43 -38 -12 -23
-12 -66 1 -89 18 -33 78 -44 138 -26 29 8 59 13 67 10 24 -10 28 -41 6 -63
-36 -36 6 -92 45 -60 19 15 108 19 149 5 17 -5 40 -17 52 -26 13 -10 44 -21
70 -25 26 -4 63 -15 83 -25 31 -15 60 -18 130 -11 12 1 15 11 12 41 -3 32 -1
40 12 40 9 0 25 9 36 20 21 21 27 50 10 50 -7 0 -9 13 -5 33 5 24 2 37 -9 46
-14 12 -16 10 -16 -11 0 -30 -17 -48 -47 -48 -13 0 -23 -5 -23 -11 0 -8 -4 -8
-14 0 -11 9 -20 10 -35 1 -12 -6 -37 -11 -58 -12 -31 -1 -42 5 -69 36 -18 21
-34 50 -36 65 -2 18 -10 27 -26 29 -27 4 -38 24 -26 50 4 9 6 23 5 30 -3 21
27 13 46 -12 15 -18 23 -22 36 -14 9 5 17 6 17 2 0 -4 8 0 18 9 10 9 39 26 65
37 48 22 54 29 37 46 -7 7 -7 21 1 43 8 23 14 29 20 20 6 -11 9 -10 15 4 11
29 20 19 16 -19 -3 -23 -11 -38 -21 -41 -18 -4 -21 -49 -5 -74 15 -24 34 -83
34 -108 0 -19 3 -21 14 -11 8 6 12 18 9 26 -6 17 10 18 39 2 37 -22 48 -36 42
-55 -5 -14 -4 -15 4 -4 8 11 16 11 41 3 30 -11 32 -9 42 16 5 15 15 37 21 49
12 25 2 46 -11 24 -14 -22 -23 5 -15 42 l7 32 13 -30 c8 -21 19 -30 36 -30 21
-1 23 4 23 42 0 27 -5 43 -12 43 -18 0 -27 20 -14 33 26 26 12 40 -35 34 -34
-3 -47 -1 -51 9 -4 12 -8 12 -21 2 -13 -11 -14 -10 -7 11 9 30 -16 25 -30 -7
-17 -38 -31 -22 -26 28 2 13 1 13 -9 0 -9 -11 -13 -12 -17 -2 -2 6 -11 12 -19
12 -8 0 -22 4 -32 9 -9 5 -34 17 -54 26 -41 17 -47 31 -21 50 15 11 15 16 -3
64 -11 32 -23 50 -31 47 -18 -7 -45 53 -38 85 6 25 4 26 -52 32 -32 3 -66 8
-75 12 -13 5 -18 2 -18 -10 0 -13 -6 -16 -25 -11 -21 5 -27 1 -40 -30 -21 -50
-10 -56 26 -16 28 31 49 35 49 9 -1 -19 -47 -67 -65 -67 -8 0 -15 -7 -15 -15
0 -19 -16 -20 -23 -1 -8 19 3 85 14 92 5 3 9 21 9 40 0 24 5 34 15 34 8 0 15
7 15 16 0 8 5 12 11 9 6 -4 8 -14 5 -22 -4 -9 -1 -13 6 -11 15 5 22 33 15 52
-8 19 -59 7 -64 -14 -4 -17 -8 -16 -41 7 -21 14 -38 20 -40 14 -6 -18 -34 -12
-30 6 3 16 19 21 89 26 26 2 45 12 65 34 23 24 36 30 62 28 47 -3 63 -23 35
-42 -21 -14 -22 -17 -7 -44 8 -16 20 -29 27 -30 6 0 20 -2 30 -4 9 -2 17 3 17
11 0 8 5 14 10 14 6 0 10 -7 10 -15 0 -8 5 -15 10 -15 6 0 10 6 10 13 0 7 5
18 12 25 9 9 16 8 30 -5 17 -15 20 -15 28 -3 8 12 10 10 10 -7 0 -12 10 -30
23 -40 31 -25 57 -68 57 -95 0 -13 5 -30 10 -38 8 -13 10 -12 10 3 0 9 5 17
10 17 12 0 13 -87 1 -94 -5 -3 -11 1 -15 9 -8 21 -33 19 -45 -3 -12 -23 2 -47
23 -39 10 4 20 -1 26 -13 6 -11 20 -20 31 -20 30 0 69 30 69 52 0 15 5 19 18
14 9 -3 -3 13 -28 36 -62 59 -87 132 -55 158 10 9 12 17 6 23 -5 5 -7 16 -3
25 4 12 1 14 -12 9 -10 -4 -23 -4 -29 0 -7 4 -19 8 -27 8 -8 0 -14 8 -14 18 1
13 -3 16 -16 12 -22 -7 -57 7 -93 37 -37 31 -28 58 19 58 31 0 34 3 34 30 0
27 -18 44 -21 20 -1 -5 -2 -14 -3 -19 -2 -20 -16 -23 -16 -4 0 23 -35 58 -58
58 -10 0 -18 9 -20 22 -2 12 -10 27 -18 33 -8 7 -14 22 -14 34 0 11 -7 29 -14
38 -12 17 -14 17 -30 -1 -15 -16 -15 -22 -1 -61 19 -55 19 -90 0 -90 -8 0 -15
-4 -15 -10 0 -5 -9 -10 -21 -10 -14 0 -25 11 -36 37 l-15 37 -32 -35 c-17 -20
-39 -50 -49 -68 -27 -50 -42 -35 -40 40 3 63 2 64 -33 87 -34 22 -35 25 -29
64 5 28 2 51 -10 77 l-17 38 -51 -9 c-59 -9 -72 0 -83 59 -6 30 -24 47 -24 23
0 -6 -11 -15 -25 -22 -19 -8 -25 -21 -30 -57 -3 -25 -8 -57 -11 -71 -5 -22 -7
-23 -16 -7 -6 12 -6 28 1 49 19 54 14 94 -15 117 -32 25 -47 26 -65 5z m254
-392 c34 -35 51 -87 33 -101 -14 -12 -59 -2 -93 20 -18 11 -24 11 -37 0 -9 -8
-16 -21 -16 -30 0 -41 -47 -54 -80 -21 -24 24 -26 53 -5 72 62 56 114 85 156
87 8 1 27 -12 42 -27z"/>
<path d="M0 3655 c0 -440 2 -535 13 -535 8 0 19 11 25 25 6 14 18 25 27 25 8
0 15 7 15 15 0 8 -5 15 -11 15 -8 0 -8 4 0 14 6 7 42 16 79 20 37 4 87 10 111
13 43 6 44 6 38 -19 -5 -17 -2 -30 8 -38 8 -7 15 -18 15 -26 0 -22 69 -82 89
-77 11 3 21 -2 24 -11 5 -11 19 -16 50 -16 28 0 50 -6 63 -18 10 -10 27 -21
37 -25 20 -8 14 -27 -9 -27 -8 0 -14 -4 -14 -10 0 -5 -7 -10 -15 -10 -8 0 -15
-5 -15 -10 0 -6 -11 -15 -23 -19 -25 -10 -62 -75 -52 -91 9 -14 31 -13 100 6
78 20 245 28 245 11 1 -17 84 -57 120 -57 16 0 53 9 83 20 85 32 167 26 167
-12 0 -5 7 -16 15 -25 9 -8 19 -28 22 -44 3 -16 9 -29 12 -29 6 0 32 -46 40
-70 1 -3 8 -23 15 -45 l14 -40 76 -3 75 -3 3 -111 3 -111 35 -20 c19 -10 37
-22 40 -26 3 -4 22 -15 43 -24 20 -10 37 -24 37 -31 0 -8 18 -21 40 -30 36
-14 40 -19 40 -50 0 -19 5 -36 11 -38 6 -2 15 -37 18 -77 6 -61 11 -77 32 -94
13 -10 23 -26 21 -33 -2 -8 4 -14 12 -14 9 0 19 -12 22 -27 4 -16 11 -31 16
-34 5 -3 2 -21 -5 -40 -8 -19 -12 -40 -10 -47 3 -7 -4 -16 -14 -18 -11 -3 -28
-20 -38 -37 -10 -17 -32 -44 -48 -58 -39 -35 -31 -69 16 -69 50 0 77 11 77 30
0 24 29 46 72 54 21 4 44 13 52 21 8 8 32 15 53 14 21 0 33 -3 26 -6 -7 -2
-15 -21 -19 -41 -14 -75 -30 -92 -91 -92 -30 0 -43 -4 -43 -14 0 -8 6 -17 13
-20 10 -5 10 -7 -1 -12 -6 -3 -12 -17 -12 -30 0 -20 5 -24 28 -24 47 1 182 37
201 54 10 9 34 16 54 16 20 0 37 5 37 10 0 6 -5 10 -12 10 -6 0 -8 3 -4 8 4 4
18 -6 30 -21 29 -36 89 -51 148 -38 24 6 44 15 46 20 12 36 112 -26 112 -69 0
-22 55 -80 76 -80 8 0 25 -6 37 -14 29 -19 127 -32 127 -17 0 6 18 11 40 11
30 0 40 -4 40 -16 0 -13 7 -15 40 -9 22 4 40 4 40 0 0 -12 -29 -35 -44 -35
-20 0 -20 -10 -2 -35 12 -17 16 -17 30 -6 9 8 15 20 12 28 -10 24 22 14 53
-18 18 -17 31 -41 31 -55 0 -22 4 -24 45 -24 37 0 47 -4 56 -22 6 -13 21 -31
35 -41 21 -15 24 -16 24 -2 0 8 -7 15 -15 15 -19 0 -19 5 3 43 17 32 41 56 55
57 4 0 7 -22 7 -50 0 -38 4 -50 15 -50 8 0 15 -4 15 -9 0 -25 78 -30 253 -15
57 5 67 4 67 -10 0 -12 9 -16 35 -16 27 0 42 9 75 42 22 24 43 53 47 65 4 20
12 23 49 23 24 0 44 -5 44 -10 0 -6 12 -15 26 -20 14 -6 28 -19 31 -29 4 -15
16 -20 51 -23 85 -6 122 1 122 23 0 12 10 23 25 29 14 5 25 14 25 20 0 5 7 10
15 10 11 0 15 -11 15 -40 0 -29 4 -40 15 -40 11 0 15 11 15 39 0 36 3 40 28
44 19 3 13 5 -18 6 -38 2 -41 4 -19 11 37 11 139 12 139 1 0 -6 -17 -12 -37
-14 -21 -2 -10 -4 25 -3 39 0 70 5 80 13 15 13 14 14 -11 8 -34 -7 -55 3 -36
17 11 8 10 9 -3 4 -10 -3 -18 -1 -18 4 0 6 -30 10 -66 10 -36 0 -74 5 -85 10
-10 6 -50 12 -88 13 -39 1 -69 6 -68 12 1 5 -8 11 -20 13 -13 2 -23 -1 -23 -7
0 -6 -5 -11 -11 -11 -6 0 -9 7 -5 15 5 15 -12 18 -91 19 -13 0 -23 3 -23 7 0
8 -81 30 -115 32 -11 0 -22 4 -25 7 -5 7 -53 21 -135 41 -60 14 -172 47 -250
74 -38 13 -97 31 -130 40 -33 9 -68 21 -77 26 -10 5 -22 9 -28 9 -5 0 -40 14
-77 31 -38 17 -120 54 -183 81 -63 28 -149 67 -190 88 -41 20 -127 63 -191 94
-63 32 -129 69 -145 83 -16 13 -58 41 -94 61 -73 40 -115 69 -179 124 -46 40
-95 68 -118 68 -7 0 -13 5 -13 10 0 6 -11 15 -25 22 -13 6 -22 14 -19 19 2 4
-7 18 -20 31 -13 13 -54 61 -91 108 -102 129 -127 160 -167 204 -20 23 -40 52
-43 66 -4 14 -12 32 -20 40 -7 8 -36 60 -65 115 -51 96 -59 124 -79 265 -5 36
-21 110 -35 165 -14 55 -31 131 -36 169 -6 38 -14 74 -19 80 -5 6 -19 40 -31
76 -41 121 -70 160 -171 225 -98 64 -187 103 -250 110 -74 9 -190 45 -215 67
-11 10 -28 18 -36 18 -25 0 -48 11 -43 20 3 4 -10 11 -29 14 -18 4 -41 15 -51
26 -10 11 -23 20 -29 20 -6 0 -24 14 -40 30 -37 38 -113 83 -126 75 -6 -3 -10
1 -10 9 0 13 -14 16 -80 16 l-80 0 0 -535z m3560 -2390 c0 -8 5 -15 11 -15 6
0 9 6 6 13 -3 8 1 14 9 14 8 0 14 -10 14 -22 0 -13 7 -28 15 -35 21 -17 19
-32 -6 -54 -15 -13 -24 -15 -32 -7 -21 21 -67 13 -79 -14 -14 -32 -19 -31 -40
6 -23 40 -23 49 5 50 l22 2 -22 4 c-25 5 -31 28 -10 36 8 3 20 1 28 -4 25 -15
39 -10 39 16 0 18 5 25 20 25 11 0 20 -7 20 -15z"/>
<path d="M3190 4123 c-18 -80 -50 -101 -70 -47 -12 31 -24 30 -49 -2 -25 -32
-27 -48 -6 -40 11 4 22 -6 36 -29 12 -19 25 -35 29 -35 5 0 17 14 27 30 21 37
30 37 71 0 37 -35 39 -48 11 -83 -17 -23 -18 -30 -7 -49 10 -20 13 -21 16 -5
2 9 8 15 13 11 5 -3 7 -9 4 -14 -9 -14 24 -32 49 -26 32 8 45 45 21 62 -9 7
-23 10 -29 8 -33 -13 -37 43 -11 138 5 21 2 31 -14 45 -12 10 -26 35 -32 55
-7 26 -15 38 -28 38 -14 0 -21 -14 -31 -57z"/>
<path d="M7014 4137 c-4 -11 -14 -15 -33 -11 -31 6 -45 -6 -55 -49 -8 -33 -31
-45 -57 -28 -16 9 -25 7 -48 -10 -39 -29 -87 -20 -148 27 -33 25 -48 32 -54
23 -4 -7 -5 -19 -1 -28 4 -12 0 -11 -18 4 l-23 20 8 -25 c4 -14 8 -37 8 -52 0
-15 3 -26 6 -24 10 6 34 -17 53 -49 12 -20 24 -29 38 -28 11 2 20 -1 20 -6 0
-4 11 -13 25 -19 14 -6 25 -20 25 -29 0 -14 -2 -15 -9 -4 -6 9 -11 10 -15 2
-9 -13 18 -26 34 -16 6 4 10 17 8 30 -1 12 3 30 11 38 7 9 11 23 8 32 -11 27
15 27 44 -1 35 -33 35 -37 6 -53 -24 -13 -56 -96 -42 -109 4 -4 10 -1 12 6 3
6 11 12 19 12 8 0 14 -6 14 -12 0 -15 63 -88 75 -88 4 0 2 6 -4 14 -8 10 -9
16 -1 21 5 3 10 15 10 27 0 16 4 19 24 14 14 -3 32 -3 40 0 22 9 20 47 -4 62
-25 15 -26 32 -2 32 23 0 56 35 47 49 -3 6 -1 11 4 11 6 0 11 -6 11 -13 0 -8
18 -22 41 -32 22 -10 68 -38 102 -62 66 -47 94 -52 138 -26 30 18 33 24 44 85
4 28 17 46 51 74 36 30 42 39 33 51 -19 23 -54 12 -57 -18 -4 -36 -51 -58 -66
-32 -6 10 -13 29 -16 43 -3 13 -18 31 -33 40 -24 13 -29 13 -37 0 -5 -8 -10
-25 -10 -37 0 -12 -10 -29 -22 -37 -16 -11 -22 -25 -20 -46 2 -32 -8 -39 -27
-16 -8 10 -8 21 -1 40 13 36 13 38 -7 34 -25 -4 -43 10 -43 33 0 13 -7 19 -21
19 -16 0 -19 4 -14 20 4 13 1 22 -9 26 -9 3 -16 13 -16 21 0 8 -9 26 -20 40
-16 21 -21 23 -26 10z"/>
<path d="M6414 4089 c-3 -5 9 -29 26 -53 34 -51 93 -196 91 -229 0 -12 -2 -35
-3 -52 -3 -26 1 -30 24 -33 19 -2 28 -10 30 -25 2 -16 10 -22 28 -22 22 0 26
5 30 47 5 43 15 68 23 57 2 -2 15 -23 30 -46 30 -47 38 -51 57 -28 10 12 10
21 1 41 -6 14 -11 34 -11 44 0 10 -7 23 -16 28 -9 5 -14 15 -12 23 7 21 -50
53 -68 38 -8 -6 -14 -17 -14 -25 0 -25 -22 -26 -43 -3 -12 13 -28 46 -35 74
-7 27 -28 77 -46 110 -27 49 -37 60 -60 61 -15 1 -29 -3 -32 -7z"/>
<path d="M7721 4031 c-10 -7 -12 -21 -8 -54 l6 -45 -74 5 c-114 6 -112 -25 4
-61 50 -15 57 -16 67 -2 6 9 20 16 30 16 18 1 18 1 2 14 -10 7 -18 18 -18 25
0 6 8 11 18 11 18 1 52 23 52 35 0 14 -42 65 -53 65 -7 0 -18 -4 -26 -9z"/>
<path d="M3541 3949 c-20 -8 -22 -14 -17 -44 8 -39 -7 -75 -29 -75 -17 0 -19
12 -5 26 17 17 1 42 -33 54 -27 9 -34 8 -44 -6 -10 -14 -10 -19 4 -29 14 -11
14 -14 -2 -39 -16 -25 -16 -28 -1 -45 9 -9 16 -25 16 -33 0 -27 29 -44 51 -30
10 7 24 12 31 12 19 1 78 93 77 121 0 13 -6 40 -12 60 -11 33 -14 36 -36 28z"/>
<path d="M4157 3770 c-20 -33 -53 -40 -60 -12 -4 16 -4 16 -12 0 -11 -27 1
-48 28 -48 17 0 28 -10 40 -35 9 -19 24 -35 32 -35 9 0 14 4 10 9 -3 5 -1 12
5 16 5 3 10 -2 10 -11 0 -25 18 -5 22 25 3 26 46 48 74 37 13 -5 14 -9 4 -21
-16 -20 -5 -32 14 -16 18 15 59 5 53 -12 -2 -7 -15 -13 -28 -15 -22 -3 -24 -7
-21 -40 4 -32 3 -35 -10 -24 -8 6 -18 9 -21 5 -4 -3 -10 2 -13 12 -6 14 -9 12
-20 -14 -9 -21 -18 -29 -28 -25 -10 4 -20 -3 -27 -19 -10 -21 -9 -29 5 -42 9
-9 16 -24 16 -34 0 -17 18 -41 32 -41 4 0 5 6 2 14 -3 8 -1 17 5 21 6 3 11 0
11 -8 0 -7 12 -24 26 -38 23 -21 25 -22 22 -5 -1 10 3 21 10 23 6 3 12 0 12
-7 0 -6 8 -20 19 -31 18 -20 18 -20 26 3 7 22 7 22 12 3 3 -11 9 -22 13 -25 5
-3 10 -25 11 -48 3 -38 0 -46 -21 -57 -31 -16 -68 -1 -76 31 -11 42 -29 47
-63 18 l-32 -26 -27 27 c-15 15 -27 32 -27 39 0 6 -10 10 -23 8 -23 -3 -26 3
-22 65 1 27 -3 33 -24 39 -37 9 -47 32 -30 66 11 21 22 28 43 28 29 0 45 18
33 37 -4 6 -23 9 -42 7 -46 -3 -70 4 -70 21 0 8 -13 15 -32 17 -24 2 -32 7
-29 18 11 41 6 55 -21 58 -33 4 -56 -29 -34 -47 11 -9 15 -6 20 11 5 15 9 18
13 10 3 -7 -7 -29 -22 -48 -27 -35 -27 -35 -46 -15 -10 11 -19 27 -19 35 0 17
-36 40 -50 31 -5 -3 -11 -1 -15 5 -3 5 -15 10 -26 10 -13 0 -19 7 -19 24 0 13
-7 29 -15 36 -13 10 -19 10 -35 -5 -11 -10 -20 -25 -20 -33 0 -13 -3 -12 -19
2 -25 23 -55 17 -59 -12 -4 -23 7 -27 62 -23 16 2 32 -3 36 -10 11 -16 -18
-44 -44 -44 -31 0 -28 -37 4 -46 77 -21 118 1 104 56 -4 15 -2 25 5 25 6 0 8
-6 5 -14 -3 -8 2 -16 11 -18 9 -1 23 -20 30 -41 12 -36 12 -41 -8 -63 -11 -13
-30 -24 -41 -24 -16 0 -18 -2 -7 -9 9 -6 3 -8 -19 -6 -35 2 -60 26 -60 57 0
27 -23 22 -55 -12 -16 -16 -36 -30 -45 -30 -9 0 -25 -6 -35 -14 -16 -11 -17
-18 -8 -37 l12 -24 0 23 c1 27 21 30 21 3 0 -11 7 -21 16 -23 9 -2 22 -20 29
-41 12 -34 12 -52 3 -122 -2 -14 2 -19 15 -17 9 2 17 -2 17 -7 0 -12 59 -3 78
12 9 7 16 7 23 0 17 -17 30 -92 20 -111 -5 -9 -12 -40 -16 -69 -5 -42 -3 -57
12 -77 10 -14 21 -26 26 -26 10 0 9 38 -2 44 -14 9 -19 66 -9 105 5 20 10 41
10 48 1 7 5 10 10 7 5 -3 18 2 28 11 10 9 38 19 62 22 24 3 50 11 58 18 8 7
25 16 37 19 19 6 21 13 19 72 -1 46 1 59 8 45 5 -12 13 -21 18 -21 4 0 8 -10
8 -23 0 -31 18 -47 52 -47 21 0 31 -6 38 -26 14 -36 12 -44 -6 -37 -12 4 -15
2 -12 -8 2 -8 15 -16 27 -17 15 -2 21 0 17 7 -5 7 4 11 23 11 17 0 34 0 39 0
4 1 9 -16 12 -37 4 -34 8 -38 36 -41 27 -3 33 -10 59 -67 32 -74 52 -82 84
-36 24 34 28 63 7 55 -16 -6 -30 8 -55 56 -13 25 -24 34 -39 32 -24 -4 -34 9
-22 28 7 12 12 11 29 -4 19 -17 21 -17 58 3 56 32 83 85 83 166 0 50 -4 67
-16 72 -8 3 -20 1 -27 -6 -14 -14 -97 -15 -97 -1 0 6 -8 10 -17 10 -28 0 -47
17 -49 42 -1 13 -5 31 -9 41 -11 27 9 43 37 30 13 -6 37 -11 54 -12 29 -1 32
2 37 36 4 20 2 42 -3 49 -6 6 -7 20 -3 29 4 13 3 16 -5 11 -7 -4 -12 -3 -12 3
0 15 23 26 28 13 2 -7 14 -12 26 -12 12 0 32 -10 44 -23 26 -27 28 -37 7 -37
-8 0 -17 -11 -21 -25 -8 -33 1 -43 16 -16 10 20 12 20 36 4 14 -9 38 -16 54
-15 34 1 76 37 57 49 -28 18 -53 33 -73 42 -11 5 -34 25 -51 44 -46 52 -70 63
-94 41 -22 -20 -44 -12 -63 22 -6 10 -12 21 -13 23 -2 2 -8 -1 -15 -6 -7 -6
-29 -13 -48 -16 -19 -4 -44 -9 -56 -12 -15 -5 -23 -1 -30 15 -9 20 -10 20 -27
-10z"/>
<path d="M6440 3780 c0 -5 -6 -10 -14 -10 -8 0 -29 -13 -47 -29 -31 -29 -32
-30 -19 -73 22 -79 23 -105 5 -112 -14 -5 -16 -2 -12 14 3 11 1 20 -3 20 -5 0
-16 14 -24 31 -12 23 -13 36 -5 51 7 13 7 23 0 32 -6 6 -8 22 -4 34 9 35 -2
26 -38 -33 -25 -40 -40 -55 -57 -55 -18 0 -23 5 -20 21 2 12 12 27 23 33 31
18 80 65 74 71 -11 11 -60 -15 -86 -45 -13 -16 -34 -30 -46 -30 -11 0 -34 -4
-51 -10 -17 -5 -44 -12 -59 -15 -24 -5 -28 -10 -25 -33 2 -21 9 -28 29 -30 18
-2 29 -11 33 -25 5 -21 6 -22 20 -2 15 19 15 19 16 1 0 -17 2 -18 18 -4 9 9
23 13 30 11 8 -3 29 3 47 13 38 20 61 11 31 -12 -29 -21 -11 -30 19 -10 21 14
29 15 41 5 19 -16 18 -26 -6 -46 -11 -10 -20 -21 -20 -26 0 -4 -15 -21 -34
-37 -19 -17 -33 -38 -32 -47 0 -10 -3 -18 -9 -19 -5 0 -18 -4 -27 -8 -35 -16
-50 22 -27 66 19 36 -2 34 -33 -4 -20 -25 -38 -38 -54 -38 -14 0 -24 -6 -24
-14 0 -7 -9 -25 -20 -39 -19 -24 -18 -57 1 -57 15 0 10 -30 -6 -36 -19 -8 -19
-19 2 -44 13 -15 20 -17 31 -8 11 10 13 5 10 -28 -3 -34 -6 -39 -30 -42 -14
-2 -29 -10 -32 -19 -7 -17 10 -43 28 -43 20 1 47 27 49 47 0 11 7 25 14 32 13
12 14 10 17 -19 0 -8 9 -16 19 -18 12 -3 17 3 17 22 0 23 43 76 62 76 5 0 8 8
8 19 0 10 9 21 20 24 17 4 19 11 14 31 -5 22 -3 26 16 26 20 0 22 4 17 34 -4
27 -2 35 13 39 21 5 45 -35 41 -69 -2 -25 23 -48 45 -40 9 3 29 -3 44 -14 31
-22 30 -23 62 40 11 21 16 45 13 62 -6 27 8 47 20 28 4 -6 11 -8 16 -4 16 10
48 -31 43 -53 -5 -20 31 -93 46 -93 39 0 55 45 25 70 -21 18 -19 34 8 45 15 7
23 20 25 43 3 32 5 33 40 30 44 -4 54 -29 24 -61 -28 -31 -19 -87 13 -87 15 0
25 -8 30 -22 4 -14 8 -18 12 -10 2 6 10 12 17 12 7 0 18 16 25 35 7 19 18 35
25 35 20 0 47 35 41 53 -4 8 -2 18 4 22 6 3 11 0 11 -8 0 -8 7 -28 16 -45 14
-30 29 -37 63 -33 10 2 12 -9 6 -48 -6 -43 -4 -52 10 -58 26 -9 50 10 52 43 1
16 4 40 5 54 3 22 -1 25 -31 26 -31 0 -36 5 -53 43 -15 35 -22 42 -38 38 -25
-7 -27 23 -4 59 16 23 18 23 29 7 7 -10 16 -32 19 -50 8 -37 29 -58 51 -49 18
7 13 40 -16 97 -15 31 -25 38 -56 42 -51 6 -143 -12 -168 -33 -21 -18 -100
-17 -119 1 -6 5 -18 9 -27 9 -10 0 -53 18 -95 40 -43 22 -82 40 -87 40 -5 0
-17 -10 -27 -22 -17 -21 -20 -22 -35 -7 -13 13 -15 21 -6 36 7 14 7 23 -1 31
-8 8 -8 15 2 27 7 8 10 24 7 35 -3 13 1 21 14 25 20 7 28 55 9 55 -5 0 -10 -4
-10 -10z"/>
<path d="M7495 3740 c-22 -11 -51 -20 -66 -20 -15 0 -29 -7 -33 -15 -3 -9 -12
-12 -22 -8 -14 5 -14 3 -2 -16 9 -16 20 -20 38 -17 94 19 118 18 139 -3 12
-12 21 -34 21 -49 0 -40 28 -62 78 -62 50 0 72 20 90 84 19 64 14 81 -28 83
-19 2 -55 4 -80 6 -33 2 -46 8 -48 20 -5 23 -39 22 -87 -3z"/>
<path d="M5807 3673 c-4 -3 -7 -50 -7 -104 0 -75 -4 -101 -16 -113 -21 -22
-11 -33 34 -38 l38 -3 -2 125 c-1 69 -3 128 -3 133 -1 9 -35 9 -44 0z"/>
<path d="M6677 3673 c-13 -12 -7 -48 13 -80 17 -28 25 -33 59 -33 22 0 44 6
51 15 7 8 21 15 31 15 11 0 19 5 19 11 0 6 7 8 16 5 13 -5 15 -1 9 21 -10 42
-20 48 -62 35 -79 -24 -80 -24 -86 -2 -5 19 -36 28 -50 13z"/>
<path d="M4783 3623 c-7 -2 -13 -20 -13 -38 0 -39 -20 -55 -69 -55 -35 0 -36
-2 -19 -30 19 -30 5 -33 -58 -10 -33 12 -68 23 -79 24 -11 2 -30 8 -42 14 -30
17 -50 15 -57 -5 -9 -22 26 -58 59 -61 14 -1 39 -9 55 -17 17 -9 30 -11 30 -5
0 20 20 9 26 -15 4 -17 13 -25 29 -25 29 0 48 -23 40 -49 -7 -22 14 -70 40
-91 24 -20 28 -6 14 49 -7 28 -10 53 -7 56 3 3 25 1 49 -5 24 -5 60 -12 79
-15 19 -3 43 -12 54 -20 17 -13 16 -16 -23 -63 -40 -47 -51 -72 -31 -72 6 0
10 7 10 16 0 8 5 12 10 9 6 -3 10 -1 10 4 0 12 70 81 81 81 4 0 3 -15 -2 -32
-5 -18 -9 -33 -9 -34 0 -1 -14 -4 -31 -8 -38 -7 -34 -31 7 -32 46 -2 54 5 54
49 0 22 3 37 7 34 3 -4 12 -2 18 3 9 8 14 2 19 -21 5 -26 1 -36 -19 -55 -14
-13 -25 -32 -25 -42 0 -11 -10 -26 -22 -34 -15 -10 -19 -20 -14 -33 5 -14 9
-16 18 -7 14 14 28 16 28 4 0 -5 -10 -14 -22 -20 -19 -9 -20 -11 -5 -11 10 -1
26 14 38 34 12 19 27 35 35 35 16 0 29 43 19 61 -5 6 4 20 20 33 25 20 26 25
15 45 -11 21 -9 26 14 45 27 21 51 82 37 91 -9 5 -33 -19 -50 -52 -12 -24 -35
-30 -46 -13 -10 16 24 62 41 56 17 -6 19 5 3 21 -8 8 -7 17 3 33 10 18 10 24
1 27 -7 3 -13 15 -13 27 0 19 6 23 35 24 19 1 45 6 56 13 21 11 21 11 2 31
-16 16 -26 18 -54 11 -23 -6 -35 -16 -37 -30 -2 -15 -13 -23 -35 -26 -82 -15
-98 -21 -109 -41 -6 -11 -10 -23 -9 -26 1 -2 -2 -6 -8 -8 -6 -2 -11 6 -11 17
0 19 -35 61 -52 61 -4 0 -8 -7 -8 -16 0 -10 -7 -14 -17 -12 -10 2 -17 10 -15
17 2 9 -3 9 -19 0 -17 -9 -20 -8 -17 3 3 7 14 14 26 16 18 3 20 8 15 35 -3 18
-10 37 -15 42 -6 7 -9 7 -8 0 4 -21 0 -35 -11 -35 -7 0 -9 10 -5 25 4 14 5 25
4 24 -2 0 -9 -3 -15 -6z"/>
<path d="M5337 3583 c-4 -3 -7 -14 -7 -23 0 -10 -16 -22 -42 -31 -38 -14 -43
-20 -46 -50 -1 -19 -8 -45 -14 -57 -11 -20 -9 -26 9 -40 36 -29 47 -61 29 -81
-24 -27 -19 -51 16 -83 38 -34 52 -35 73 -5 l16 22 27 -30 c50 -57 102 -66
106 -18 1 10 7 29 13 43 7 14 14 37 17 51 6 30 42 45 63 27 10 -8 13 -6 13 6
0 9 -4 16 -10 16 -5 0 -10 5 -10 11 0 11 -24 39 -34 39 -2 0 -11 -7 -20 -15
-13 -14 -18 -13 -41 8 l-27 23 27 32 c15 18 33 31 40 28 19 -7 39 10 29 25 -5
8 -9 28 -9 44 0 27 -3 30 -30 30 -24 0 -31 -5 -33 -25 -2 -13 -13 -32 -24 -42
-30 -25 -35 -91 -10 -116 11 -11 26 -22 33 -25 19 -8 -17 -37 -46 -37 -12 0
-26 -5 -32 -11 -17 -17 -51 8 -88 61 -24 35 -27 45 -17 61 7 10 12 28 12 38 0
15 10 22 43 28 33 7 43 13 45 31 2 15 -2 22 -12 22 -10 0 -16 9 -17 23 0 12
-3 16 -6 10 -2 -7 -9 -13 -15 -13 -6 0 -8 7 -4 15 5 15 -5 20 -17 8z"/>
<path d="M7317 3572 c-5 -6 -19 -12 -31 -12 -31 0 -41 -42 -15 -58 24 -15 14
-48 -25 -90 -24 -26 -30 -40 -27 -68 1 -21 -3 -42 -12 -52 -8 -9 -17 -28 -19
-41 -2 -20 -15 -30 -63 -49 -33 -13 -79 -25 -103 -26 -52 -3 -72 -19 -55 -44
6 -9 21 -16 33 -14 19 2 21 0 10 -13 -14 -17 -50 -20 -50 -5 0 28 -37 1 -45
-33 -6 -24 -5 -27 19 -27 36 0 57 -48 29 -68 -16 -11 -19 -10 -26 13 -5 14
-15 25 -23 25 -8 0 -14 7 -14 15 0 8 -4 15 -9 15 -4 0 -25 14 -46 30 -41 32
-68 39 -59 15 4 -8 1 -15 -5 -15 -6 0 -11 5 -11 10 0 6 -7 10 -15 10 -17 0
-20 -26 -4 -36 20 -12 -11 -22 -45 -15 -17 4 -42 4 -56 1 -16 -5 -31 -2 -42 8
-22 18 -23 4 -3 -24 9 -14 29 -23 62 -27 51 -6 113 -32 113 -48 0 -5 -4 -9 -8
-9 -5 0 -16 -6 -26 -13 -15 -11 -17 -17 -7 -35 6 -12 16 -22 21 -22 16 0 39
31 34 45 -4 8 -1 15 5 15 6 0 11 -7 11 -15 0 -9 7 -18 15 -21 8 -4 15 -14 15
-25 0 -10 10 -27 22 -38 l21 -20 -26 -10 c-20 -8 -27 -18 -27 -36 0 -23 4 -25
41 -25 36 0 40 -2 29 -15 -7 -8 -16 -12 -22 -9 -5 3 -20 -2 -34 -11 -14 -9
-32 -14 -39 -11 -7 2 -21 -2 -32 -9 -10 -8 -34 -15 -54 -15 -20 0 -42 -7 -49
-15 -15 -18 -20 -17 103 -16 68 0 118 7 164 21 72 22 103 25 103 10 0 -15 27
-12 61 6 19 10 29 21 25 30 -3 8 5 19 23 29 28 14 47 60 30 71 -5 3 -20 -7
-34 -22 -20 -22 -28 -25 -38 -15 -9 10 -6 17 16 33 32 24 39 55 7 38 -31 -17
-94 -2 -106 25 -11 22 -9 25 17 30 16 4 26 11 23 16 -7 12 15 41 27 34 4 -3
13 4 19 15 6 11 17 20 26 20 13 0 13 -4 1 -27 -18 -36 -12 -53 19 -53 28 0 46
34 37 69 -4 15 -1 21 11 21 22 0 20 13 -4 28 -15 9 -18 19 -14 40 8 39 -14 57
-50 41 -14 -7 -26 -16 -26 -21 0 -15 -30 -8 -50 12 -24 24 -26 40 -6 40 8 0
51 11 95 25 67 22 81 29 81 47 0 11 8 26 17 33 15 11 15 17 5 39 -11 24 -9 29
30 64 77 70 97 81 134 75 22 -4 34 -2 34 6 0 6 5 11 11 11 6 0 8 -9 4 -20 -5
-17 -2 -20 24 -20 42 0 61 9 61 30 0 20 -19 30 -59 30 -17 0 -38 11 -56 30
-34 36 -43 37 -47 8 -4 -32 -36 -36 -42 -6 -19 93 -22 102 -29 90z"/>
<path d="M7800 3444 c-14 -7 -33 -14 -42 -14 -11 0 -18 -8 -18 -19 0 -13 -15
-26 -45 -41 -25 -12 -45 -26 -45 -31 0 -5 -7 -9 -15 -9 -21 0 -19 18 4 25 30
9 50 46 40 73 -12 32 -29 24 -60 -29 -18 -30 -23 -48 -17 -56 7 -9 3 -16 -17
-23 -14 -5 -33 -10 -41 -10 -8 0 -14 -4 -14 -10 0 -5 6 -10 14 -10 8 0 18 -5
22 -12 5 -7 2 -9 -9 -5 -8 3 -21 0 -27 -8 -6 -7 -24 -18 -40 -25 -17 -7 -30
-21 -32 -33 -3 -19 -9 -22 -56 -22 -43 0 -55 -4 -64 -20 -6 -11 -16 -23 -21
-26 -5 -4 -7 -15 -3 -25 6 -16 8 -16 16 -4 8 13 10 13 10 -1 0 -12 8 -16 25
-15 14 0 25 6 25 12 0 15 53 23 94 15 28 -6 31 -10 28 -38 -3 -23 2 -34 17
-42 28 -15 56 12 40 40 -5 11 -7 28 -4 38 4 13 -3 26 -21 40 -15 12 -24 24
-21 28 4 3 15 -1 25 -10 10 -10 23 -17 29 -17 17 0 24 29 13 50 -14 26 -13 30
11 30 19 0 21 -5 17 -67 -3 -66 -2 -68 23 -71 15 -2 32 5 44 18 19 20 45 27
45 11 0 -5 13 -14 30 -19 27 -10 30 -9 35 11 3 12 -1 47 -9 77 -8 30 -15 49
-15 43 -1 -7 -8 -13 -17 -13 -10 0 -14 6 -11 14 3 8 2 30 -3 48 -8 25 -7 34 5
40 8 5 21 15 29 23 16 16 30 20 22 6 -8 -13 30 -43 50 -39 9 1 20 10 24 18 4
8 14 30 23 48 31 62 -23 95 -93 56z"/>
<path d="M5656 3427 c-21 -17 -27 -28 -22 -44 4 -14 2 -23 -9 -27 -12 -4 -14
-10 -7 -22 15 -27 3 -51 -29 -58 -32 -6 -41 -42 -13 -53 13 -5 15 -14 10 -46
-7 -43 6 -69 30 -60 8 3 26 -5 39 -17 20 -19 27 -21 40 -10 27 23 18 47 -21
54 -19 4 -34 10 -32 14 2 4 10 19 17 35 8 15 21 27 30 27 14 0 14 2 1 10 -11
7 -20 3 -36 -16 -15 -18 -24 -22 -29 -15 -11 18 3 61 20 61 8 0 15 5 15 10 0
6 -7 10 -15 10 -8 0 -15 6 -15 14 0 24 18 28 30 6 14 -27 34 -26 27 2 -6 22 7
48 24 48 5 0 9 -7 9 -15 0 -25 41 -55 67 -49 33 9 29 -9 -10 -43 -18 -16 -36
-37 -40 -45 -9 -25 50 -20 91 8 19 13 38 22 42 19 12 -7 20 37 10 50 -11 13
-3 25 17 25 7 0 12 -9 10 -21 -3 -28 27 -48 50 -33 12 7 18 24 18 50 1 54 -10
80 -35 87 -17 4 -20 2 -14 -15 6 -19 3 -20 -32 -16 -28 3 -43 0 -51 -11 -11
-14 -12 -13 -13 7 0 26 -12 28 -30 7 -11 -13 -14 -13 -26 2 -11 15 -15 15 -23
4 -14 -21 -53 -4 -50 22 3 39 -1 67 -8 67 -5 0 -21 -10 -37 -23z"/>
<path d="M6276 3192 c-4 -7 -3 -19 3 -26 8 -10 7 -17 -4 -26 -25 -21 -19 -50
10 -50 34 0 31 -13 -5 -27 -25 -9 -30 -17 -30 -45 0 -45 -13 -62 -41 -55 -18
4 -32 -2 -53 -24 -42 -42 -57 -39 -89 18 -18 33 -18 33 7 57 36 32 33 43 -3
14 -31 -24 -38 -47 -21 -64 12 -12 -23 -54 -44 -54 -19 0 -80 -71 -69 -80 4
-5 17 -10 28 -12 14 -2 21 -12 23 -34 3 -28 6 -30 33 -26 24 3 29 9 27 26 -2
11 -7 24 -12 27 -15 11 3 42 20 35 11 -4 18 1 21 14 6 22 18 26 28 10 3 -5 17
-10 31 -10 29 0 41 -24 24 -46 -9 -10 -16 -12 -24 -4 -20 20 -43 10 -60 -29
-15 -31 -16 -43 -6 -60 16 -31 52 -24 61 11 7 27 15 39 57 83 26 29 40 31 48
10 9 -22 64 -20 64 3 0 12 -14 22 -42 32 -46 16 -57 35 -36 62 11 14 20 15 58
7 25 -5 51 -11 59 -12 9 -1 18 11 23 31 8 31 11 33 39 27 16 -4 42 -18 56 -31
l26 -24 -27 0 c-26 0 -73 -24 -88 -45 -16 -22 -8 -45 16 -45 13 0 26 -6 29
-12 4 -10 7 -10 18 0 21 19 29 14 29 -18 0 -24 6 -33 28 -41 45 -18 86 -16 90
3 5 25 -17 44 -60 52 -44 8 -52 18 -44 52 4 16 13 24 24 23 30 -3 42 1 42 12
0 6 -6 9 -13 6 -16 -6 -41 29 -31 44 3 6 15 9 25 6 14 -4 19 0 19 14 0 12 -7
19 -20 19 -14 0 -20 7 -20 21 0 16 -4 19 -20 14 -15 -5 -18 -3 -14 9 3 9 1 16
-5 16 -6 0 -11 -5 -11 -10 0 -6 -12 -9 -27 -7 -16 2 -34 0 -40 -6 -10 -7 -13
-1 -13 25 0 34 -24 68 -47 68 -20 0 -24 33 -6 54 10 12 11 15 3 9 -19 -18 -28
-16 -32 5 -3 13 -5 14 -12 4z"/>
<path d="M4827 3093 c-4 -3 -7 -16 -7 -29 0 -22 -24 -39 -41 -28 -5 3 -12 -2
-15 -10 -9 -23 -24 -20 -24 4 0 11 -4 20 -9 20 -5 0 -16 3 -25 6 -12 4 -16 0
-16 -15 0 -12 -5 -21 -10 -21 -6 0 -8 11 -4 25 5 20 3 24 -9 19 -8 -3 -17 -23
-21 -44 -8 -51 -24 -59 -37 -20 -14 39 -52 39 -57 0 -6 -42 -20 -50 -86 -50
-72 0 -90 -11 -74 -46 14 -29 -4 -54 -37 -54 -18 0 -24 -7 -29 -33 l-6 -32
-63 0 -62 0 -3 -32 c-2 -24 1 -33 17 -38 12 -3 26 -3 33 2 7 4 23 6 35 5 11
-2 24 2 28 8 10 15 25 2 18 -16 -4 -10 9 -29 36 -55 77 -73 39 -89 -77 -33
-29 14 -71 28 -93 31 -34 5 -39 3 -39 -14 0 -11 10 -25 24 -31 15 -7 26 -22
30 -44 4 -18 9 -45 12 -60 7 -29 31 -42 59 -32 14 6 16 14 11 47 -7 39 -6 39
21 32 15 -3 42 -17 60 -31 17 -13 36 -24 41 -24 6 0 17 19 26 41 17 41 17 42
32 20 17 -23 39 -29 31 -7 -3 8 5 18 19 25 21 9 24 8 24 -9 0 -10 -6 -23 -14
-27 -7 -4 -15 -23 -18 -41 -4 -27 -1 -33 18 -38 13 -4 24 -15 26 -27 2 -17 10
-22 33 -22 26 0 30 5 38 39 7 28 6 40 -3 46 -9 6 -11 21 -6 48 3 24 2 43 -4
47 -5 3 -10 17 -10 29 0 13 -7 29 -15 36 -8 7 -15 21 -15 31 0 10 -12 26 -26
36 -25 16 -27 16 -40 -2 -13 -18 -18 -36 -15 -60 2 -20 -44 -15 -57 5 -10 17
-10 26 3 50 8 16 15 41 15 56 0 19 4 25 15 20 9 -3 15 0 15 9 0 8 7 15 15 15
9 0 12 -6 8 -17 -8 -23 7 -10 21 19 14 28 48 36 164 41 86 4 97 7 113 28 l18
24 21 -23 c22 -23 50 -30 50 -11 0 6 -7 8 -16 5 -12 -4 -14 -1 -9 14 4 14 2
20 -8 20 -9 0 -18 6 -20 13 -4 9 -7 9 -14 0 -11 -16 -53 10 -53 33 0 12 8 13
34 9 32 -6 34 -5 41 24 4 17 15 33 26 36 21 7 25 35 7 53 -13 13 -41 16 -51 5z"/>
<path d="M7696 3028 c-24 -37 -26 -45 -14 -66 11 -21 10 -26 -6 -38 -22 -16
-46 -3 -46 26 0 21 -31 50 -53 50 -9 0 -21 -9 -27 -20 -6 -11 -14 -19 -18 -19
-24 4 -42 -3 -42 -16 0 -8 -7 -15 -15 -15 -8 0 -15 -9 -15 -20 0 -11 -4 -20
-10 -20 -5 0 -10 7 -10 16 0 8 -4 12 -10 9 -5 -3 -10 -15 -10 -26 0 -14 -7
-19 -25 -19 -26 0 -27 -10 -9 -67 5 -17 32 -16 66 1 14 8 42 14 62 14 19 0 40
3 45 7 13 7 41 -17 41 -35 0 -9 31 -11 118 -8 65 3 124 8 130 12 26 16 4 70
-23 59 -9 -3 -15 5 -17 24 -4 40 -42 44 -60 6 -10 -21 -22 -29 -46 -31 -36 -4
-37 -2 -18 37 17 31 41 54 63 57 26 4 44 27 41 53 -2 20 -10 27 -33 32 l-30 6
35 16 35 16 -36 1 c-31 0 -39 -5 -63 -42z"/>
<path d="M5778 3033 c-9 -2 -19 -16 -23 -30 -3 -15 -15 -39 -26 -54 -23 -33
-24 -47 -3 -70 15 -17 12 -21 -35 -71 -28 -29 -51 -59 -51 -66 0 -7 -10 -26
-22 -42 -18 -25 -29 -30 -63 -30 -28 0 -47 -6 -58 -18 -26 -28 -22 -52 8 -52
39 0 105 23 105 37 0 16 2 16 35 3 23 -9 27 -15 23 -41 -7 -44 19 -50 49 -13
28 36 29 58 3 82 -19 17 -19 52 -1 52 9 0 56 -52 70 -78 10 -18 19 -23 37 -19
18 3 24 0 24 -14 0 -11 5 -19 11 -19 6 0 9 12 7 27 -2 15 2 28 10 30 6 3 12
-1 12 -7 0 -10 4 -10 15 0 12 10 18 10 30 0 8 -7 12 -16 9 -22 -6 -10 41 -58
57 -58 14 0 11 66 -5 79 -7 6 -16 25 -20 42 -5 27 -9 30 -30 25 -28 -7 -51 15
-42 40 6 15 8 15 26 -1 19 -18 20 -17 20 3 0 12 -5 22 -11 22 -6 0 -9 7 -6 15
10 24 -11 28 -38 7 -15 -12 -20 -22 -14 -24 24 -8 -2 -46 -42 -62 -46 -19 -59
-20 -59 -6 0 6 9 10 21 10 11 0 18 4 14 9 -3 5 4 12 15 16 31 10 25 37 -7 33
-18 -2 -28 2 -27 10 1 6 2 22 3 33 1 18 4 19 16 9 24 -20 38 -2 21 26 -9 13
-16 30 -16 39 0 11 -6 14 -25 9 -16 -4 -25 -2 -25 6 0 21 20 50 35 50 18 0 29
41 20 69 -6 21 -14 23 -47 14z"/>
<path d="M3714 2930 c-5 -4 -34 -12 -64 -17 -48 -7 -55 -11 -58 -33 -4 -25 -3
-25 13 -5 16 20 16 20 12 -2 -3 -12 1 -24 8 -27 11 -4 10 -14 -5 -53 -10 -26
-23 -49 -29 -51 -14 -5 5 -32 21 -32 5 0 26 -11 46 -25 20 -14 41 -25 45 -25
5 0 6 19 2 43 -11 64 -9 157 4 170 8 8 11 4 11 -14 0 -49 53 -69 64 -24 4 14
12 25 18 25 6 0 20 7 30 17 17 15 18 14 18 -29 0 -32 -5 -48 -15 -52 -8 -3
-15 -15 -15 -27 l0 -22 25 23 c14 13 25 32 25 42 0 11 11 23 28 29 26 10 26
11 7 21 -11 5 -30 22 -42 36 l-22 26 -24 -22 c-29 -27 -43 -28 -50 -3 -6 23
-40 43 -53 31z"/>
<path d="M5435 2890 c-3 -5 -21 -10 -40 -10 -36 0 -46 -13 -38 -53 6 -30 33
-36 53 -12 10 12 15 13 20 4 6 -8 13 -8 31 1 16 9 24 10 27 2 5 -17 1 -23 -41
-61 -34 -31 -40 -33 -61 -21 -18 9 -28 9 -45 0 -28 -14 -25 -53 4 -58 34 -6
61 -52 30 -52 -8 0 -15 -8 -15 -19 0 -10 -7 -25 -16 -32 -13 -11 -17 -10 -25
4 -6 9 -16 17 -24 17 -8 0 -19 9 -25 19 -8 16 -17 19 -47 14 -26 -4 -34 -3
-29 5 9 15 -18 16 -45 2 -16 -9 -19 -7 -19 15 0 25 -2 26 -32 20 -18 -4 -40
-14 -49 -22 -14 -12 -17 -12 -23 3 -5 13 -9 14 -21 4 -12 -10 -18 -10 -31 1
-14 11 -18 11 -28 -1 -6 -9 -28 -15 -50 -15 -39 0 -40 1 -53 45 -12 42 -51 88
-99 116 -16 9 -23 4 -49 -34 -51 -74 -65 -101 -55 -107 5 -3 9 -21 8 -40 -1
-37 13 -61 43 -70 10 -4 19 -15 19 -26 0 -10 9 -28 20 -39 23 -23 26 -61 8
-90 -16 -26 -4 -36 27 -22 14 7 35 12 45 12 24 0 26 13 5 34 -8 8 -15 22 -15
31 0 15 9 16 80 10 70 -6 80 -5 80 9 0 9 -8 16 -19 16 -10 0 -36 7 -57 16 -22
9 -50 13 -67 10 -27 -6 -28 -5 -22 24 6 26 4 30 -15 30 -16 0 -20 4 -16 16 3
9 6 18 6 20 0 11 31 2 36 -11 4 -10 20 -15 46 -15 34 0 131 -42 162 -70 5 -5
2 -29 -7 -55 -19 -53 -14 -75 17 -75 16 0 24 10 36 48 16 50 50 73 50 33 0
-12 5 -21 10 -21 6 0 10 9 10 19 0 11 6 22 13 24 7 3 5 6 -5 6 -41 2 -4 51 42
57 19 3 52 7 73 10 33 6 37 4 37 -14 0 -16 -10 -24 -37 -31 -21 -6 -47 -11
-58 -11 -13 0 -16 -3 -8 -11 7 -7 28 -7 69 0 69 13 121 3 116 -22 -2 -10 4
-17 13 -17 11 0 15 11 15 42 0 31 6 49 26 69 21 22 24 30 15 47 -8 15 -8 23 0
28 6 3 8 15 6 26 -4 14 2 22 21 29 19 7 28 7 30 -1 3 -9 14 -2 73 53 18 16 24
43 19 95 -1 12 6 25 14 28 27 10 18 26 -11 20 -16 -3 -52 -7 -80 -8 -40 -2
-52 -6 -50 -17 1 -7 -4 -16 -10 -18 -9 -3 -11 4 -7 26 6 31 1 40 -11 21z"/>
<path d="M0 2671 c0 -121 4 -191 10 -191 6 0 10 7 10 16 0 20 66 160 80 169
21 13 9 48 -29 85 -22 22 -42 53 -46 69 -17 78 -25 31 -25 -148z"/>
<path d="M3405 2739 c-14 -22 -7 -75 13 -110 19 -30 31 -38 77 -49 44 -11 57
-11 70 0 19 16 19 34 0 50 -17 14 -20 56 -5 65 6 3 10 12 10 20 0 10 -7 11
-35 4 -19 -6 -47 -9 -62 -7 -22 2 -28 -1 -28 -16 0 -11 -6 -21 -13 -24 -11 -3
-17 20 -13 61 2 19 -4 22 -14 6z"/>
<path d="M6478 2650 c-29 -33 -48 -39 -48 -14 0 20 -38 10 -60 -15 -24 -27
-61 -33 -67 -11 -5 19 -39 33 -56 23 -9 -6 -3 -110 7 -120 2 -3 35 3 73 13 37
9 80 16 94 16 18 -2 32 7 48 28 12 17 26 28 31 25 5 -3 11 -1 15 5 3 5 11 10
17 10 6 0 6 -6 -2 -15 -10 -12 -10 -19 -2 -27 9 -9 12 -8 12 3 0 8 9 21 20 29
29 21 26 44 -5 36 -14 -4 -25 -3 -25 2 0 4 -6 16 -13 25 -11 16 -14 15 -39
-13z"/>
<path d="M50 2255 c-7 -9 -8 -15 -2 -15 6 0 13 -18 17 -41 4 -22 10 -38 13
-35 7 7 46 -75 43 -91 -3 -18 22 -63 55 -100 34 -37 39 -43 89 -109 21 -27 48
-59 61 -71 60 -56 85 40 27 103 -13 14 -27 39 -30 55 -3 16 -9 29 -14 29 -5 0
-9 5 -9 11 0 6 -19 29 -42 53 -63 62 -118 125 -118 133 0 5 -18 27 -39 51 -33
37 -40 41 -51 27z"/>
<path d="M7060 1352 c0 -5 -16 -9 -35 -10 -20 -1 -39 -4 -44 -6 -4 -3 -75 -17
-157 -31 -82 -14 -192 -35 -244 -46 -99 -21 -272 -45 -394 -54 -64 -4 -206
-11 -656 -31 -80 -3 -215 -1 -300 5 -328 22 -443 25 -438 11 6 -19 94 -40 173
-40 98 -1 195 -19 195 -36 0 -8 11 -15 28 -15 57 -3 215 3 240 10 15 3 40 5
56 3 26 -3 28 -6 23 -38 -7 -42 9 -81 35 -90 10 -3 16 -10 13 -15 -4 -5 1 -9
9 -9 8 0 20 -8 25 -17 9 -16 10 -16 11 5 0 12 5 22 11 22 5 0 7 -4 4 -10 -7
-12 12 -50 25 -50 5 0 16 12 23 27 l15 27 6 -40 c7 -40 10 -43 83 -77 32 -16
39 -30 46 -97 4 -32 4 -32 5 8 2 47 22 59 22 12 0 -27 4 -30 40 -36 30 -5 40
-11 40 -25 0 -28 12 -23 48 17 31 34 52 38 52 8 0 -8 7 -14 16 -14 16 0 44
-23 44 -37 0 -13 59 -13 66 -1 5 8 10 5 15 -8 7 -17 8 -17 8 -1 1 10 9 17 20
17 14 0 18 -5 14 -20 -6 -22 28 -43 35 -22 6 19 22 14 22 -6 0 -10 6 -24 12
-30 13 -13 3 -25 -27 -35 -5 -2 -4 -10 3 -18 7 -8 19 -23 26 -34 12 -16 16
-17 30 -6 14 12 16 10 16 -13 0 -18 -5 -26 -17 -26 -13 0 -11 -5 10 -18 15 -9
30 -27 33 -39 4 -13 10 -21 14 -18 4 3 10 -2 14 -10 3 -8 16 -15 28 -15 22 -1
22 -1 -6 -26 -21 -19 -30 -37 -33 -67 -3 -23 -8 -43 -13 -45 -4 -2 -6 -12 -3
-22 4 -14 0 -20 -11 -20 -9 0 -16 -5 -16 -11 0 -5 4 -8 9 -4 5 3 3 -8 -5 -24
-8 -16 -16 -54 -18 -84 -2 -30 -6 -59 -10 -66 -6 -9 31 -11 154 -10 l161 1 -6
28 c-3 16 -2 31 4 35 6 3 11 14 11 24 0 10 7 24 15 31 12 10 15 9 15 -5 0 -25
34 -14 38 12 2 14 8 20 18 16 9 -3 14 2 14 15 0 14 8 22 23 24 16 2 22 10 22
28 0 19 5 24 18 22 15 -3 17 1 12 19 -4 13 -3 19 3 15 5 -3 17 3 27 14 11 12
26 18 35 15 16 -5 27 7 35 38 2 4 3 9 4 11 0 2 28 -2 62 -10 33 -8 65 -12 70
-8 5 3 18 2 30 -1 16 -5 18 -10 8 -21 -15 -18 5 -46 27 -37 8 3 45 0 82 -6
128 -22 125 -22 118 -6 -4 12 5 14 57 10 34 -3 63 -9 65 -15 8 -23 22 -8 16
17 -4 20 -3 24 4 14 15 -21 45 -6 37 19 -5 16 -2 20 15 20 34 0 36 28 4 56
-26 22 -36 25 -84 21 -34 -3 -48 -2 -35 3 17 7 17 9 3 9 -25 1 -23 21 2 21 11
0 20 5 20 10 0 6 -9 10 -20 10 -11 0 -20 5 -20 10 0 6 7 10 16 10 9 0 -3 17
-32 45 -28 28 -56 45 -70 45 -18 0 -24 6 -24 21 0 14 -10 24 -30 32 -17 6 -29
16 -26 22 2 6 -15 17 -38 24 -48 15 -92 59 -104 104 -7 27 -13 33 -42 35 -31
3 -32 2 -16 -13 24 -24 20 -29 -8 -8 -16 12 -20 20 -12 25 7 5 5 12 -8 21 -15
11 -18 21 -13 45 4 21 1 34 -10 43 -23 19 -32 51 -21 73 7 12 6 22 -1 29 -15
15 -14 180 1 195 9 9 7 16 -8 33 -18 20 -18 22 -2 33 10 7 15 16 11 19 -3 4 5
7 18 7 17 0 20 3 11 9 -16 10 69 24 92 15 8 -3 24 4 35 15 21 21 21 21 1 21
-11 0 -20 -4 -20 -8z m-945 -205 c0 -19 -6 -32 -19 -39 -16 -9 -18 -8 -13 7 5
11 -7 6 -33 -15 -22 -17 -44 -29 -50 -25 -5 3 -10 -3 -10 -14 0 -23 -15 -28
-23 -8 -4 8 -6 7 -7 -3 0 -8 -11 -23 -24 -32 -26 -19 -25 -21 -43 80 -4 23
-10 32 -19 28 -8 -3 -14 -1 -14 4 0 6 6 10 14 10 8 0 16 7 19 15 4 10 27 15
79 18 136 7 141 6 143 -26z"/>
</g>
</svg>
